<svg viewBox="0 0 38 18" fill="none" xmlns="http://www.w3.org/2000/svg" class="logo-svg" data-v-15820338="" data-fc-idx="0"><path d="M16.2892 3.5561C15.2908 3.5561 14.4827 2.77093 14.4827 1.78566C14.4827 0.800394 13.6725 0 12.6763 0H5.42161C4.42319 0 3.61515 0.798219 3.61515 1.78566C3.61515 2.7731 2.80711 3.57132 1.80868 3.57132C0.810254 3.57132 0 4.36954 0 5.35481V12.4235C0 13.4088 0.80804 14.2092 1.80647 14.2092C2.80489 14.2092 3.61293 15.0074 3.61293 15.9948C3.61293 16.9823 4.42097 17.7805 5.4194 17.7805H12.674C13.6725 17.7805 14.4805 16.9823 14.4805 15.9948C14.4805 15.0074 15.2886 14.2092 16.287 14.2092C17.2854 14.2092 18.0935 13.4088 18.0935 12.4235V5.34176C18.0935 4.35649 17.2854 3.5561 16.287 3.5561H16.2892ZM12.6807 14.2418L5.42161 14.2244C4.42983 14.2244 3.62622 13.4305 3.62622 12.4496L3.61958 5.33088C3.61958 4.34997 4.42319 3.5561 5.41497 3.5561H12.674C13.6658 3.5561 14.4694 4.34344 14.4694 5.32218L14.4761 12.467C14.4761 13.4479 13.6725 14.2418 12.6807 14.2418ZM36.1958 3.5561C35.1973 3.5561 34.3893 2.77093 34.3893 1.78566C34.3893 0.800394 33.5812 0 32.5828 0C32.5828 0 32.5717 0 32.5673 0C31.5689 0 30.7586 0.796044 30.7586 1.77696C30.7586 2.75788 31.5689 3.55392 32.5673 3.55392C32.5717 3.55392 32.5784 3.55392 32.5828 3.55392C33.5746 3.55392 34.3782 4.34127 34.3782 5.32218L34.3849 12.467C34.3849 13.4479 33.5812 14.2418 32.5895 14.2418H32.4699L27.6881 1.09837C27.4158 0.454572 26.7694 0 26.0145 0H25.326C24.3275 0 23.5173 0.796044 23.5173 1.77696C23.5173 1.79001 23.5173 1.80089 23.5173 1.81394C23.5018 2.78615 22.7004 3.57132 21.7108 3.57132C20.7212 3.57132 19.9043 4.36954 19.9043 5.35698V12.4257C19.9043 13.4109 20.7124 14.2113 21.7108 14.2113C22.7092 14.2113 23.5018 14.9943 23.5173 15.9687C23.5173 15.9818 23.5173 15.9927 23.5173 16.0035C23.5173 16.9844 24.3275 17.7805 25.326 17.7805C26.3244 17.7805 27.1346 16.9844 27.1346 16.0035C27.1346 15.0226 26.3244 14.2266 25.326 14.2266C24.3342 14.2266 23.5306 13.4327 23.5306 12.4518L23.5239 5.33306C23.5239 4.35214 24.3275 3.55827 25.3193 3.55827H25.3237H25.4344L30.1985 16.6103H30.2008C30.4531 17.2911 31.1173 17.7805 31.901 17.7805H32.5651C32.5651 17.7805 32.5762 17.7805 32.5806 17.7805C33.579 17.7805 34.3871 16.9823 34.3871 15.997C34.3871 15.0117 35.1951 14.2113 36.1935 14.2113C37.192 14.2113 38 13.4109 38 12.4257V5.34176C38 4.35649 37.192 3.5561 36.1935 3.5561H36.1958Z" fill="currentColor" style="fill: rgb(0, 0, 0) !important;"/></svg>